<svg xmlns="http://www.w3.org/2000/svg" xmlns:xlink="http://www.w3.org/1999/xlink" width="100px" height="100px" version="1.1">
    <title>spritesheet-icons</title>
    <defs>
        <linearGradient x1="50%" y1="27.6487208%" x2="50%" y2="100%" id="linearGradient-1">
            <stop stop-color="#FFCE00" offset="0%"/>
            <stop stop-color="#FFA700" offset="100%"/>
        </linearGradient>
        <polygon id="path-2" points="0.202148348 0.277866179 37.8648282 0.277866179 37.8648282 8.70470856 0.202148348 8.70470856"/>
        <polygon id="path-4" points="0.202148348 0.277866179 37.8648282 0.277866179 37.8648282 8.70470856 0.202148348 8.70470856"/>
        <path d="M15.7676,6.8906 L9.5176,14.3906 C9.3376,14.6066 9.0756,14.7366 8.7946,14.7486 C8.7796,14.7496 8.7646,14.7496 8.7496,14.7496 C8.4846,14.7496 8.2306,14.6456 8.0426,14.4566 L4.2926,10.7066 C3.9026,10.3166 3.9026,9.6836 4.2926,9.2926 C4.6836,8.9026 5.3166,8.9026 5.7066,9.2926 L8.6826,12.2686 L14.2316,5.6096 C14.5846,5.1856 15.2146,5.1286 15.6396,5.4816 C16.0636,5.8346 16.1216,6.4656 15.7676,6.8906 M9.9996,-0.0004 C4.4766,-0.0004 -0.0004,4.4776 -0.0004,9.9996 C-0.0004,15.5226 4.4766,19.9996 9.9996,19.9996 C15.5226,19.9996 19.9996,15.5226 19.9996,9.9996 C19.9996,4.4776 15.5226,-0.0004 9.9996,-0.0004" id="path-6"/>
    </defs>
    <g id="Page-1" stroke="none" stroke-width="1" fill="none" fill-rule="evenodd">
        <g id="icon-play-blue-large" fill-rule="nonzero">
            <circle id="Oval" fill="#FFFFFF" cx="45" cy="45" r="45"/>
            <path d="M38.568,62.048 L59.324,46.274 C59.7222113,45.9714506 59.9560517,45.5001084 59.9560517,45 C59.9560517,44.4998916 59.7222113,44.0285494 59.324,43.726 L38.568,27.952 C38.0840158,27.5842518 37.4334483,27.5225113 36.8889269,27.7926516 C36.3444054,28.062792 36,28.6181518 36,29.226 L36,60.774 C36,61.3818482 36.3444054,61.937208 36.8889269,62.2073484 C37.4334483,62.4774887 38.0840158,62.4157482 38.568,62.048 Z" id="Path" fill="#14e1ca"/>
        </g>            
    </g>
</svg>